<?xml version="1.0" standalone="no"?><svg xmlns="http://www.w3.org/2000/svg" viewBox="0 0 1440 320"><path fill="#5000ca" fill-opacity="0.85" d="M0,96L26.7,85.3C53.3,75,107,53,160,42.7C213.3,32,267,32,320,74.7C373.3,117,427,203,480,202.7C533.3,203,587,117,640,96C693.3,75,747,117,800,138.7C853.3,160,907,160,960,149.3C1013.3,139,1067,117,1120,128C1173.3,139,1227,181,1280,213.3C1333.3,245,1387,267,1413,277.3L1440,288L1440,320L1413.3,320C1386.7,320,1333,320,1280,320C1226.7,320,1173,320,1120,320C1066.7,320,1013,320,960,320C906.7,320,853,320,800,320C746.7,320,693,320,640,320C586.7,320,533,320,480,320C426.7,320,373,320,320,320C266.7,320,213,320,160,320C106.7,320,53,320,27,320L0,320Z"></path></svg>